<?xml version="1.0" encoding="utf-8"?>
<!-- Generator: Adobe Illustrator 16.0.0, SVG Export Plug-In . SVG Version: 6.00 Build 0)  -->
<!DOCTYPE svg PUBLIC "-//W3C//DTD SVG 1.1//EN" "http://www.w3.org/Graphics/SVG/1.1/DTD/svg11.dtd">
<svg version="1.1" id="Layer_1" xmlns="http://www.w3.org/2000/svg" xmlns:xlink="http://www.w3.org/1999/xlink" x="0px" y="0px"
	 width="1160px" height="300px" viewBox="0 0 1160 300" enable-background="new 0 0 1160 300" xml:space="preserve">
<g>
	<g>
		<g id="Logotype_1_">
			<g>
				<path fill="#A02021" d="M580.035,59.627c-20.811-13.728-48.831-18.841-86.153-18.841l-70.585-0.034v233.693l72.063,0.035
					c25.658,0,47.711-3.299,66.152-10.7c18.523-7.553,33.005-19.543,42.826-36.826c9.814-17.269,14.949-39.774,14.949-68.403
					c0-24.744-3.113-44.985-9.576-61.289C603.251,80.931,593.38,68.544,580.035,59.627z M561.134,198.98
					c-3.481,11.655-9.045,20.542-17.692,26.734c-9.505,6.702-23.851,10.355-41.574,10.355h-25.263l-0.038-156.86l21.208,0.023
					c20.878,0.074,36.334,3.409,46.737,11.058c7.602,5.666,12.896,13.578,16.359,24.37c3.458,10.814,4.995,24.444,4.995,41.33
					C565.867,172.885,564.609,187.295,561.134,198.98z"/>
				<path fill="#A02021" d="M580.035,59.627c-20.811-13.728-48.831-18.841-86.153-18.841l-70.585-0.034v233.693l72.063,0.035
					c25.658,0,47.711-3.299,66.152-10.7c18.523-7.553,33.005-19.543,42.826-36.826c9.814-17.269,14.949-39.774,14.949-68.403
					c0-24.744-3.113-44.985-9.576-61.289C603.251,80.931,593.38,68.544,580.035,59.627z M561.134,198.98
					c-3.481,11.655-9.045,20.542-17.692,26.734c-9.505,6.702-23.851,10.355-41.574,10.355h-25.263l-0.038-156.86l21.208,0.023
					c20.878,0.074,36.334,3.409,46.737,11.058c7.602,5.666,12.896,13.578,16.359,24.37c3.458,10.814,4.995,24.444,4.995,41.33
					C565.867,172.885,564.609,187.295,561.134,198.98z"/>
				<polygon display="none" fill="#9F2122" points="291.652,174.85 353.481,174.85 353.481,136.774 291.652,136.774 291.652,79.069 
					386.915,79.069 386.915,40.752 238.172,40.752 238.172,274.445 386.944,274.445 386.944,235.69 291.652,235.69 				"/>
				<polygon fill="#A02021" points="652.75,274.445 706.124,274.445 706.124,174.85 767.817,174.85 767.817,136.774 
					706.124,136.774 706.124,79.22 801.43,79.231 801.43,40.752 652.75,40.752 				"/>
				<path fill="#A02021" d="M835.209,274.445h53.444V40.752h-53.444C835.209,40.752,834.809,274.445,835.209,274.445z"/>
				<polygon fill="#A02021" points="1123.505,40.752 1069.853,40.752 1069.853,174.85 970.547,40.752 927.761,40.752 
					927.761,274.445 981.442,274.445 981.442,136.811 1079.672,274.445 1123.505,274.445 				"/>
				<polygon display="none" fill="#9F2122" points="291.652,174.85 353.481,174.85 353.481,136.774 291.652,136.774 291.652,79.069 
					386.915,79.069 386.915,40.752 238.172,40.752 238.172,274.445 386.944,274.445 386.944,235.69 291.652,235.69 				"/>
				<polygon fill="#A02021" points="652.75,274.445 706.124,274.445 706.124,174.85 767.817,174.85 767.817,136.774 
					706.124,136.774 706.124,79.22 801.43,79.231 801.43,40.752 652.75,40.752 				"/>
				<polygon fill="#A02021" points="1123.505,40.752 1069.853,40.752 1069.853,174.85 970.547,40.752 927.761,40.752 
					927.761,274.445 981.442,274.445 981.442,136.811 1079.672,274.445 1123.505,274.445 				"/>
			</g>
			<path fill="#A02021" d="M221.665,283.357c-4.487-1.8-8.989-5.233-21.065-25.565l-24.063-39.899l-28.364-47.026l-2.405-3.999
				c1.388-0.39,2.75-0.84,4.1-1.289c32.559-11.166,51.565-40.972,51.565-83.503c0-21.017-8.499-40.428-24.728-54.953
				c-2.366-2.01-4.81-3.927-7.425-5.678C147.615,7.153,118.438,1.821,79.573,1.821L6.074,1.788H6.039v0.016H4.957
				c-4.778-0.057-5.229,2.69-3.355,5.181c1.692,2.213,3.605,5.172,4.437,12.687v234.633c-0.828,9.556-2.771,12.6-4.437,14.799
				c-1.894,2.484-1.057,5.328,3.72,5.269h54.424V174.85h24.735l17.377,29.519l21.852,37.136l10.622,18.053
				c13.497,22.716,25.308,35.307,48.82,37.995c3.208,0.42,6.629,0.625,10.316,0.66c0.288,0,3.355,0,3.639,0
				c8.456,0,16.711-3.394,21.85-5.578c0.7-0.26,1.378-0.53,2.053-0.83C227.178,289.07,225.47,284.872,221.665,283.357z
				 M94.321,136.774H61.57h-1.826V40.769h34.577c17.115,0,30.165,2.219,39.939,11.098c3.611,3.42,6.403,7.552,8.382,12.54
				c2.399,6.047,3.607,13.323,3.607,22.09C146.25,99.251,145.079,136.774,94.321,136.774z"/>
			<polygon fill="#A02021" points="291.652,174.885 353.481,174.885 353.481,136.815 291.652,136.815 291.652,79.115 
				386.915,79.115 386.915,40.786 238.172,40.786 238.172,274.476 386.944,274.476 386.944,235.73 291.652,235.73 			"/>
		</g>
	</g>
	<g>
		<path fill="#A02021" d="M1147.453,251.115c6.327,0,11.973,4.558,11.973,11.635c0,7.107-5.646,11.695-11.973,11.695
			c-6.333,0-11.973-4.588-11.973-11.695C1135.48,255.673,1141.12,251.115,1147.453,251.115z M1147.453,271.946
			c4.833,0,8.794-3.863,8.794-9.196c0-5.298-3.961-9.136-8.794-9.136c-4.896,0-8.792,3.838-8.792,9.136
			C1138.661,268.083,1142.558,271.946,1147.453,271.946z M1142.805,256.203h4.928c3.276,0,5.116,1.024,5.116,3.868
			c0,2.395-1.527,3.334-3.432,3.488l3.494,5.708h-2.714l-3.182-5.583h-1.619v5.583h-2.592V256.203z M1145.396,261.655h2.307
			c1.497,0,2.557-0.215,2.557-1.809c0-1.37-1.497-1.62-2.682-1.62h-2.18v3.429H1145.396z"/>
	</g>
</g>
</svg>
